<?xml version="1.0" encoding="UTF-8" standalone="no"?>
<!-- Created with Inkscape (http://www.inkscape.org/) -->

<svg
   xmlns:dc="http://purl.org/dc/elements/1.1/"
   xmlns:cc="http://creativecommons.org/ns#"
   xmlns:rdf="http://www.w3.org/1999/02/22-rdf-syntax-ns#"
   xmlns:svg="http://www.w3.org/2000/svg"
   xmlns="http://www.w3.org/2000/svg"
   xmlns:sodipodi="http://sodipodi.sourceforge.net/DTD/sodipodi-0.dtd"
   xmlns:inkscape="http://www.inkscape.org/namespaces/inkscape"
   id="svg2985"
   version="1.1"
   inkscape:version="0.48.4 r9939"
   width="1648"
   height="906"
   sodipodi:docname="Certified SuperSpeed Plus USB Logo.svg">
  <metadata
     id="metadata2991">
    <rdf:RDF>
      <cc:Work
         rdf:about="">
        <dc:format>image/svg+xml</dc:format>
        <dc:type
           rdf:resource="http://purl.org/dc/dcmitype/StillImage" />
        <dc:title />
      </cc:Work>
    </rdf:RDF>
  </metadata>
  <defs
     id="defs2989" />
  <sodipodi:namedview
     pagecolor="#ffffff"
     bordercolor="#666666"
     borderopacity="1"
     objecttolerance="10"
     gridtolerance="10"
     guidetolerance="10"
     inkscape:pageopacity="0"
     inkscape:pageshadow="2"
     inkscape:window-width="1920"
     inkscape:window-height="1017"
     id="namedview2987"
     showgrid="false"
     inkscape:zoom="0.70710678"
     inkscape:cx="815.89692"
     inkscape:cy="98.272377"
     inkscape:window-x="1912"
     inkscape:window-y="-8"
     inkscape:window-maximized="1"
     inkscape:current-layer="layer1"
     inkscape:snap-bbox="true" />
  <g
     inkscape:groupmode="layer"
     id="layer1"
     inkscape:label="Layer"
     style="display:inline">
    <path
       id="top"
       style="fill:#ee3940"
       d="M 76.5,372.42485 C 64.945526,368.28191 55.211467,360.29763 50.585477,351.16868 47.422938,344.92771 43.973968,330.80975 37.96299,299.5 29.541094,258.634 22.617937,225.14452 14.438288,186 c -4.108301,-19.64318 -2.462517,-28.5436 6.73354,-36.41508 2.332446,-1.99649 6.421791,-4.5245 9.215993,-5.10792 C 34.755791,143.56498 543.5,143 543.5,143 c 0,0 508.6989,-0.16686 513.2744,-1.52564 6.9807,-2.07306 12.9056,-6.87907 16.6113,-13.47436 2.6299,-4.68061 3.0921,-6.54286 3.1023,-12.5 0.01,-3.85 -0.5204,-10.15 -1.171,-14 -10.3645,-61.326249 -10.3998,-61.672276 -6.8462,-67.095797 2.181,-3.328572 7.6537,-4.834768 12.2792,-3.37948 166.2553,109.083997 305.1881,203.611427 452.25,302.478697 39.4224,26.50169 37.6694,25.22563 40.1355,29.2158 2.7704,4.48264 2.1156,7.40508 -2.1355,9.5314 C 1567.7149,373.89373 1559.9776,374 1445.0091,374 l -122.4908,0 -1.2796,-14.5 c -1.3579,-15.38754 -3.6216,-24.2197 -8.3089,-33.13919 -11.2581,-21.42306 -30.4858,-33.70055 -62.4298,-39.86341 -7.1206,-1.37376 -16.5655,-1.84157 -45.23,-2.24025 -27.1703,-0.37791 -36.4883,-0.8152 -37.263,-1.74877 -0.9721,-1.17125 0.7809,-10.21544 9.0032,-46.45059 1.3962,-6.15288 1.6213,-8.79686 0.8303,-9.75 -0.8879,-1.0698 -40.8703,-1.30616 -219.71294,-1.29885 -133.2209,0.005 -225.07327,0.39773 -235.12756,1.00417 -31.98505,1.92925 -57.0676,6.65252 -85.14947,16.03442 -41.43037,13.84151 -76.09456,35.02331 -105.37254,64.38863 -18.74967,18.8056 -32.02722,36.71329 -41.97519,56.61273 C 488.45411,367.147 485.23396,374 485.23396,374 c 0,0 -12.34764,0.0665 -203.13895,0 C 109.66097,373.93977 79.921395,373.65161 76.5,372.42485 z"
       inkscape:connector-curvature="0"
       sodipodi:nodetypes="ssccsscssccsccssccsssscscsssssccs" />
    <path
       id="10gbps"
       style="fill:#005193;display:inline"
       d="M 659.65672,872 C 663.10933,848.87448 674.762,798.8125 674.762,798.8125 L 651.66383,811 654.87843,794.95145 680.85803,781 696.704,781 c -7.73612,37.84248 -10.56563,49.36815 -18.71546,91 z m 283.65861,-9.51802 c 7.791,-4.91827 13.822,-16.92394 14.8878,-29.63689 0.666,-7.94408 -0.6509,-12.59436 -4.6522,-16.42778 -5.7435,-5.50265 -18.0645,-4.31331 -25.1509,2.42778 -7.9013,7.51635 -13.595,26.22996 -10.9385,35.95163 1.2922,4.72865 5.6708,9.62509 9.323,10.42544 4.8565,1.06431 12.5151,-0.2052 16.5308,-2.74018 z m -20.3173,8.72579 c -1.65,-0.86832 -4.19656,-2.83774 -5.8778,-3.96486 -3.60735,-2.4184 -5.11498,-5.03982 -5.11498,-5.03982 L 910.257,872 l -9.02437,0 c 0,0 2.2902,-13.30838 4.8026,-25.13338 2.5124,-11.825 6.601,-31.37636 9.0859,-43.44746 C 917.60603,791.34806 920.704,778 920.704,778 l 10.156,0 -0.66357,3.11662 c -0.3098,1.7875 -7.2558,34.82725 -7.2558,34.82725 0,0 2.05756,-1.45751 3.25065,-2.09372 0.87487,-0.46652 1.34621,-1.13102 5.08004,-3.18341 5.47808,-3.01116 8.19021,-4.6703 13.49381,-5.23827 7.8191,-0.83736 11.027,-0.12059 16.3339,3.64966 6.4553,4.58607 8.499,9.17137 8.499,19.06806 0,14.5945 -6.1552,29.41199 -15.2559,36.72548 -9.0707,7.28941 -23.854,10.27781 -31.3441,6.3361 z m -178.6183,-13.7538 c 4.5628,-3.3664 5.6619,-5.02847 9.0537,-13.69181 3.8918,-9.94021 5.994,-20.05771 6.738,-32.42769 0.4982,-8.28473 0.3096,-10.60013 -1.0829,-13.29296 -1.8506,-3.57858 -5.7818,-5.59466 -9.2243,-4.73064 -2.9674,0.74475 -8.1212,5.17874 -9.7926,8.42488 -1.9147,3.71862 -6.1904,16.70299 -7.4522,22.63088 -0.5854,2.75 -1.5272,7.11177 -2.0928,9.69282 -1.5397,7.02512 -1.2792,17.42174 0.5238,20.90843 2.6994,5.22002 8.2264,6.25089 13.3293,2.48609 z m -20.0834,14.0511 c -4.2009,-1.8645 -7.8494,-5.71808 -10.0723,-10.63844 -1.6296,-3.60706 -2.0463,-6.68275 -2.0995,-15.5 -0.069,-11.41978 0.7907,-16.49771 5.0792,-30 6.8775,-21.65377 19.1259,-33.99435 35.0056,-35.26902 25.407,-2.03943 33.0496,20.43103 20.1586,59.26902 -5.2185,15.7222 -12.7468,25.59431 -23.3699,30.64547 -5.1213,2.43517 -7.1715,2.84117 -14,2.77252 -4.4,-0.0442 -9.2157,-0.62003 -10.7017,-1.27955 z m 349.20177,1.48414 c -4.836,-1.05707 -9.5814,-3.68682 -11.4393,-6.33937 -0.8834,-1.2613 -1.5607,-4.29315 -1.5607,-6.98667 0,-4.18786 0.1002,-5.18359 0.1002,-5.18359 l 10.0505,-0.17951 c 0,0 0.3666,2.25879 1.5048,4.66052 2.5696,5.42235 5.9931,7.2203 13.4298,7.05275 6.3591,-0.14326 11.6111,-2.60164 14.029,-6.56668 4.747,-7.78448 1.0129,-12.57926 -12.1143,-15.55549 -8.6514,-1.96148 -16.419,-5.77097 -18.3164,-8.98301 -5.4652,-9.25192 3.5203,-23.31854 17.9396,-28.084 6.3689,-2.10486 17.1826,-1.70057 22.0323,0.82372 3.3178,1.7269 6.3964,5.56038 8.0158,8.4933 1.6195,2.93293 1.0284,7.77459 1.0284,7.77459 l -10.7418,0.0392 c 0,0 -0.037,-0.23391 -0.614,-3.11893 -0.3334,-1.6668 -1.7328,-3.9168 -3.1099,-5 -3.4962,-2.75011 -12.8731,-2.70439 -18.3495,0.0895 -7.0684,3.60605 -8.4694,11.60699 -2.6791,15.29998 1.262,0.80492 6.7561,2.63747 12.209,4.07233 5.4529,1.43485 11.3624,3.50379 13.1323,4.59765 10.5644,6.52914 4.2403,25.14826 -10.6557,31.37222 -4.1621,1.73901 -18.9394,2.80381 -23.891,1.72149 z m -247.00007,-0.40773 c -7.9342,-2.26291 -13.2602,-5.88468 -17.1151,-11.63856 -8.3378,-12.44524 -7.8975,-29.82573 1.2864,-50.77314 3.7429,-8.53716 5.3387,-10.862 12.3569,-18.00234 9.1603,-9.31979 16.2859,-13.1924 28.1873,-15.3193 19.0565,-3.40558 35.0254,2.91477 38.325,15.16877 1.6318,6.05984 0.9478,6.84972 -5.9315,6.84972 -5.9013,0 -5.9639,-0.0305 -7.0925,-3.45002 -1.8041,-5.46647 -6.9116,-9.26803 -13.5696,-10.09989 -13.2051,-1.64986 -22.6353,1.47319 -31.0619,10.28691 -14.2498,14.90439 -20.3925,42.73975 -12.789,57.95265 2.523,5.04791 3.6566,6.19096 8.6389,8.71092 5.3377,2.6997 6.5151,2.89796 17,2.86281 11.6964,-0.0392 20.42063,-3.22587 20.42063,-3.22587 L 871.16247,832 l -20.28932,0 2.40715,-8 31.65095,0 c -1.25052,10.71842 -8.42676,43.63458 -8.42676,43.63458 0,0 -0.87426,0.62613 -1.99206,1.22439 -7.2343,3.87165 -38.8871,6.32567 -48.0144,3.72251 z m 196.00007,-8.11553 c 5.6508,-2.78071 11.3033,-10.60398 14.0225,-19.40772 2.6476,-8.57193 2.6919,-20.50788 0.092,-24.77165 -5.2904,-8.67564 -19.7321,-8.24119 -29.1326,0.8764 -5.8648,5.68834 -10.98177,19.79975 -10.98177,30.28498 0,8.76852 4.00797,13.9954 11.83607,15.43553 4.9016,0.90173 8.7555,0.24394 14.164,-2.41754 z M 976.09,896 c 0,0 10.36848,-44.93952 18.54054,-90 l 9.36946,0 -2.3462,14.72062 c 0,0 3.7043,-4.06525 7.4731,-7.02964 5.4815,-4.31179 15.0709,-7.82436 19.9292,-7.82436 12.164,0 21.4934,10.09929 21.4246,23.19282 -0.061,11.67938 -7.1045,28.89955 -14.674,35.87686 -11.5292,10.62719 -26.6983,11.43461 -37.50008,4.85299 -3.28988,-2.00456 -5.69962,-3.77393 -5.69962,-3.77393 L 985.8,896 z"
       inkscape:connector-curvature="0"
       sodipodi:nodetypes="ccccccccssscssssscccscccccsssssssccccsccssccsssssscccssccssssssssccsscsssccccssscscssssssccccccccccssscccccccscscscc"
       inkscape:label="#10gpbs" />
    <path
       id="bottom"
       style="fill:#005193;display:inline"
       d="m 572.4882,843.09308 c -2.75,-1.6021 -13.2262,-8.46041 -23.2806,-15.2406 C 391.90037,722.04904 253.4348,629.08769 109.48829,532.2461 91.976825,520.46443 85.522094,515.17401 84.666325,511.90154 c -0.91242,-3.48911 2.336039,-5.8936 9.321979,-6.90008 131.821556,-1.44374 227.111716,-0.96086 370.049396,-0.97667 l 0.977,2.56969 c 0.5374,1.41332 1.4539,5.80082 2.0368,9.75001 0.5829,3.94916 1.7041,9.20531 2.4917,11.6803 0.7875,2.475 2.0948,7.05191 2.9051,10.17089 3.3378,12.84747 14.8673,35.25488 23.8383,46.32911 14.7802,18.24555 34.092,33.26189 55.8974,43.46433 33.1885,15.5285 71.4705,23.08659 126.8042,25.03527 29.1149,1.02534 407.3358,0.38317 407.3358,0.38317 l 12.8815,-58.11152 51.1414,-0.54209 c 49.9231,-0.52918 51.4749,-0.60504 65.1414,-3.18429 25.7504,-4.85984 44.3304,-12.90582 60.2106,-26.07392 16.9338,-14.04175 28.3602,-32.50613 34.3271,-55.47095 0.6431,-2.475 2.3158,-5.23469 2.3158,-5.23469 0,0 256.1452,-0.91268 263.5019,0.28106 12.9248,2.09724 25.8861,11.56762 31.4666,22.99157 2.3081,4.72511 6.8621,23.39731 10.7219,43.96206 1.1396,6.07164 11.4995,55.74048 13.4534,64.5 0.8588,3.85 1.9636,9.25 2.4552,12 1.0406,5.82157 2.8964,14.81852 7.6318,36.99933 4.3177,20.22419 4.446,27.28916 0.629,34.63648 -3.3289,6.4077 -9.7596,11.17223 -17.2462,12.77784 -3.6077,0.77371 -150.9085,1.08635 -511.8348,1.08635 -451.3347,0 -507.3313,0.16689 -511.9067,1.52564 -11.1413,3.30861 -19.1634,13.46532 -20.0231,25.35127 -0.361,4.99081 2.8438,27.07031 7.7834,53.62307 3.7042,19.9123 3.4241,26.6986 -1.2371,29.9634 -3.5035,2.4539 -9.5994,1.8962 -15.2489,-1.3951 z"
       inkscape:connector-curvature="0"
       sodipodi:nodetypes="csccscccscssscccsssccscsscssssssssc" />
    <path
       id="usb"
       style="fill:#005193;display:inline"
       d="m 1195.4951,408.4408 c 10.3362,-4.2846 15,-10.44955 15,-19.82812 0,-7.40859 -4.1835,-14.02025 -10.769,-17.01958 -4.4448,-2.02439 -6.2832,-2.15658 -30.3928,-2.18538 -14.114,-0.0169 -26.3388,0.64148 -26.3388,0.64148 l -7.9022,40.93389 c 0,0 2.0017,0.0383 28.2461,-0.30996 24.1788,-0.32082 28.2226,-0.60155 32.1567,-2.23233 z m -18.8689,98.99601 c 16.9982,-3.60296 25.0454,-12.15141 25.0454,-26.60569 0,-7.96182 -2.4169,-13.51018 -7.6108,-17.47174 -6.2278,-4.75015 -11.5541,-5.45748 -41.1933,-5.47045 -28.8918,-0.0126 -29.0369,0.54997 -29.0369,0.54997 l -10.3689,49.77149 c 0,0 56.2371,0.69476 63.1645,-0.77358 z m -148.5045,61.64492 53.783,-261.22364 c 0,0 4.1369,0 74.1686,0 79.5539,0 85.2243,2.30975 100.4218,7.16856 13.3704,4.27468 25.6439,13.48218 30.5367,22.90842 5.7639,11.10472 7.8529,28.91034 5.0402,42.96246 -4.4965,22.46494 -17.5304,37.44784 -39.5634,45.47953 -7.1999,2.62458 -7.6421,4.75709 -1.4254,6.87532 15.3569,5.23264 27.9341,20.19242 31.4165,37.36816 1.7279,8.52199 0.7451,28.48466 -1.879,38.16631 -8.2022,30.26204 -32.1247,49.76804 -71.5678,58.35515 -8.5174,1.85433 -14.1672,1.99911 -94.7035,2.42679 -53.0169,0.28154 -86.2277,-0.48706 -86.2277,-0.48706 z m -384.62659,6.1476 c -18.3999,-1.72251 -32.7219,-4.71528 -44.8748,-9.37716 -26.8144,-10.28615 -45.4595,-30.9338 -49.6432,-54.97511 -2.6487,-15.22024 -1.8295,-24.44774 5.016,-56.5 8.9841,-51.13869 20.7224,-100.79973 30.2957,-146.51897 l 79.681,0 c 0,0 -20.0865,94.0533 -27.4476,129.01897 -5.8162,27.63013 -7.4055,40.55336 -6.0565,49.24792 1.3556,8.73724 3.3589,13.10356 8.1415,17.74493 4.8672,4.72343 12.2841,7.00715 22.7574,7.00715 18.8027,0 32.1233,-9.00347 40.6862,-27.5 4.1752,-9.01885 6.7149,-17.71028 10.393,-35.56741 12.0572,-53.89913 29.529,-139.95156 29.529,-139.95156 l 79.215,0 c 0,0 -22.9084,108.07372 -31.7798,151.01897 -8.7008,42.19907 -13.6701,55.51083 -27.1261,72.66424 -20.355,25.94819 -50.4286,40.19449 -91.5772,43.38148 -11.3752,0.88102 -20.0313,0.97854 -27.2096,0.30655 z m 251,0.97898 c -26.1285,-1.85415 -53.2092,-11.95786 -69.753,-26.0246 -15.5352,-13.20915 -25.494,-35.62518 -25.6797,-57.80665 l -0.067,-8 75.0034,0 1.4363,8 c 2.0419,9.98443 4.3773,14.85703 9.6524,20.13917 5.7376,5.74528 12.5468,7.67679 27.4079,7.77457 9.7626,0.0642 12.5135,-0.28916 18.2079,-2.33909 8.2095,-2.95536 15.4754,-8.31838 18.0575,-13.32843 2.9219,-5.66941 2.6537,-14.759 -0.5796,-19.64487 -5.0406,-7.61681 -11.9947,-10.61477 -52.6858,-22.71306 -46.7996,-13.91451 -67.6245,-34.81016 -69.6516,-69.88829 -1.3879,-24.01863 7.6471,-44.72328 26.543,-60.82613 14.2483,-12.14216 30.7139,-19.88678 52.8245,-24.84604 13.1167,-2.94198 46.7338,-3.18591 60.7841,-0.44106 32.7384,6.39575 54.99219,21.02588 65.44529,43.02521 3.8952,8.19788 5.9336,16.57314 6.7159,27.59476 0.5204,7.33109 0.2452,10.97429 0.2452,10.97429 l -72.24699,0 c 0,0 -0.6856,-4.44077 -1.0514,-6.836 -2.0371,-13.33823 -10.7969,-19.62589 -28.9903,-20.80884 -19.8531,-1.29086 -33.6951,6.25266 -36.082,19.66381 -0.8497,4.77356 2.7418,11.63324 7.9643,15.21181 5.5341,3.79208 12.352,6.24508 28.8441,10.37787 29.0796,7.28708 46.5302,14.09749 60.4845,23.60523 7.42569,5.05947 17.45159,15.78155 20.85669,22.30509 10.0356,19.22613 10.9333,43.48646 2.3864,64.48872 -7.3009,17.94039 -19.3,30.90292 -39.26289,42.41567 -24.1269,13.9141 -54.6194,20.2111 -86.8088,17.92686 z"
       inkscape:connector-curvature="0"
       sodipodi:nodetypes="sssscccscsssccccccssssssssscssscccccssscccccssccscccsssssssssssscccsscssssssc" />
    <path
       id="superspeed"
       style="fill:#005193;display:inline"
       d="m 977,96.200478 c 0,0 0,-14.433688 0,-20.000478 0,-7.965141 -4.33266,-13.154427 -14,-13.2 -8.0868,0 -20,0 -20,0 l 0,-9 c 0,0 13.76484,0 20,0 9.03827,0 14,-4.90157 14,-14 l 0,-20 8,0 0,20 c 0,9.087392 5.22752,14 14,14 l 20,0 0,9 c 0,0 -14.4999,-0.155892 -20,-0.146612 -8.80352,-0.02254 -14,5.456667 -14,13.346612 0,5.64868 0,20 0,20 z m -100.61352,-8.38056 c 12.3844,-5.32762 22.1118,-23.5171 22.1118,-41.34715 0,-13.98027 -5.6368,-19.97244 -20.3622,-21.64565 -9.5459,-1.08468 -14.45252,-0.798339 -14.45252,-0.798339 l -14.1799,66.419107 c 0,0 19.88052,0.384332 26.88282,-2.627968 z m -47.393,17.028082 19.5523,-93.981 21.2263,0.135 c 18.29414,0.116351 22.1395,0.832218 27.8297,2.694188 8.4019,2.74931 14.8028,8.23847 17.9385,15.38331 3.4717,7.91058 3.2656,23.19863 -0.4623,34.28768 -6.7923,20.20452 -19.4518,33.339732 -37.5797,38.991782 -7.6782,2.39399 -48.5048,2.48904 -48.5048,2.48904 z m -80.99348,0 20.592,-93.981 60.908,0 -2.5,14.189 -42.561,0 -4.441,23.311 39.002,0 -2.5,15 -40.501,0 -5.626,26.25 44.127,0.196 -2.5,15.035 z m -81,0 20.592,-93.981 60.908,0 -2.5,14.189 -42.561,0 -4.441,23.311 c 0,0 25.95495,0.368261 39.002,0.125148 l -2.5,14.874852 -40.502,0 -5.625,26.25 44.127,0.196 -2.5,15.035 z M 632.99828,52.748078 c 8.26,-2.28782 13.5,-8.85023 13.5,-16.90684 0,-8.41655 -3.8052,-10.97409 -16.3279,-10.97409 -5.5433,0 -9.33581,0.188852 -9.33581,0.188852 l -5.55347,28.144478 c 0,0 13.34228,0.75937 17.71718,-0.4524 z M 584.962,104.848 605.04608,11 c 0,0 38.2614,-0.333572 44.9531,1.409398 13.8922,3.61845 19.2448,13.84899 14.9002,28.47894 -2.0645,6.9519 -7.1061,14.78572 -12.0169,18.6723 -6.7866,5.37109 -10.59972,7.157058 -23.70742,7.606018 -6.6,0.22607 -16.76018,0.451109 -16.76018,0.451109 L 603.844,104.848 z M 470.80153,49.255528 c 8.1228,-5.63304 10.3622,-18.37362 4.9184,-24.46634 -3.4571,-3.86911 -7.9108,-4.82002 -22.8492,-4.87848 -12.3995,-0.0485 -12.26196,0.592489 -12.26196,0.592489 0,0 -7.62065,29.941453 -6.06765,31.496803 0.4125,0.41312 8.74691,0.635558 17.04551,0.451608 14.7244,-0.32639 15.1879,-0.40348 19.2149,-3.19608 z M 410.876,104.848 430.98553,11 c 0,0 5.2612,-0.174242 23.2829,0.06482 22.2009,0.29449 22.9218,0.36878 27.7613,2.86108 8.558,4.40729 11.4519,12.77754 7.9563,23.01312 -2.0517,6.00765 -8.6692,13.47967 -14.5996,16.48482 -2.6885,1.36234 -4.8882,2.86601 -4.8882,3.34146 0,0.47546 1.5563,2.05145 3.4583,3.50221 4.5438,3.4657 4.81258,5.499296 3.8564,26.60107 l -0.8147,17.97942 -12.36623,0.1 c 0,0 0.27503,-1.18264 1.83423,-18.2303 1.2767,-13.9594 1.2543,-14.49456 -0.7739,-18.47009 -2.8298,-5.54694 -4.98479,-5.9744 -19.34029,-6.17859 C 436.77684,61.93282 431.51701,62 431.51701,62 L 422.01,104.848 z m -81.88808,0 L 347.74,11 l 58.11903,0 -0.9401,9 -46.2756,0 -6.3583,32 43.8654,0 L 394,62 350.59673,61.785128 343.20503,95 l 46.5549,-0.132862 -1.83001,9.980852 z M 302.98463,50.461708 c 2.1925,-0.92951 5.0644,-2.68104 6.3819,-3.89229 5.8637,-5.39057 8.0222,-17.0292 4.0863,-22.03297 -2.8595,-3.63518 -7.5897,-4.656808 -21.5832,-4.66373 L 279.74091,20 272.8419,52 c 0,0 -0.49184,0.682998 14.1336,0.635268 8.11165,-0.02647 13.32173,-1.03467 16.00913,-2.17399 z M 269.80187,11 c 0,0 39.34086,-0.637042 44.91536,0.911148 7.8904,2.1914 13.0315,9.02509 13.1127,17.43005 0.1325,13.70844 -9.4501,26.09984 -23.8032,30.78017 -1.6656,0.54314 -9.7738,1.27064 -18.0182,1.61666 -14.79843,0.62109 -15.0792,1.104256 -15.0792,1.104256 l -9.93241,42.315436 -11.725,-0.30972 z m 245.19636,93.98711 c -3.3,-0.95566 -6.9942,-2.27964 -8.2093,-2.94219 -6.2534,-3.4096 -10.3825,-14.409372 -8.305,-22.124372 L 499.59593,76 l 17.4023,0 0.6692,5.850328 c 0.79022,6.908309 4.4128,10.53166 11.3894,11.57786 10.7904,1.61812 22.0423,-4.15921 24.577,-12.61908 2.3636,-7.88916 -1.5987,-11.55559 -16.6356,-15.39338 -10.5431,-2.69088 -20.9387,-7.94618 -24.2148,-12.24143 -2.4069,-3.15551 -2.7805,-4.54489 -2.751,-10.22931 0.1121,-21.56812 23.9821,-37.2928196 50.263,-33.1114898 8.14345,1.2956198 12.00005,3.1100698 16.39545,7.7135998 3.0412,3.18533 5.2252,11.14176 4.2619,15.52721 l -0.42978,2.86814 -17.561,0.02455 -0.88162,-5.068492 c -1.05665,-6.074761 -5.84145,-9.04013 -12.97995,-9.0094 -12.8553,0.0553 -22.7404,11.00859 -18.0758,20.02896 1.8559,3.58895 4.8646,5.02352 17.7629,8.4695 22.91415,6.12189 29.42945,13.56627 24.82395,28.36378 -4.3447,13.95975 -16.59785,23.584394 -33.96955,26.682724 -10.0987,1.80117 -17.3337,1.66994 -24.6437,-0.44696 z m -338.12255,0.40661 c -11.50101,-2.08772 -19.73661,-8.02487 -22.42313,-16.165112 -1.64562,-4.98627 -0.74673,-16.00655 2.51726,-30.86146 C 160.52557,42.080114 167.02892,11 167.02892,11 l 11.014,0 c -1.82302,8.95256 -4.74376,23.887898 -6.55159,32.350068 -6.65554,31.07619 -7.32982,38.61808 -3.94265,44.09864 5.72682,9.266202 23.20679,11.919332 35.89213,5.44775 4.64767,-2.37106 11.49615,-9.77604 13.6062,-14.71181 1.51415,-3.54186 6.90004,-26.93856 11.36129,-49.35426 C 229.56955,22.860238 232.175,11 232.175,11 l 10.91931,0 c 0,0 0.26454,-0.786792 -3.04166,14.246738 -1.34509,6.11623 -3.64619,16.97041 -5.11355,24.12041 -5.77634,28.14623 -7.84432,33.58146 -16.21836,42.62642 -6.49591,7.016362 -14.73751,11.303152 -25.8003,13.419812 -4.17896,0.79958 -7.89602,0.81326 -8.26014,0.76362 -0.36412,-0.0496 -3.8672,-0.0722 -7.78462,-0.78328 z M 74.998287,104.98711 C 66.938337,102.653 66.484949,101.48166 63.315359,96.907948 60.188469,92.395836 59.202046,78.95797 59.202046,78.95797 L 70.44547,79 l 0.774741,7.456875 c 0.66491,3.21916 2.356254,5.448134 3.334024,6.333004 5.86193,5.304972 21.483446,5.631663 30.357205,1.429451 5.59008,-2.64721 10.92331,-7.417612 12.5255,-11.667282 3.41175,-9.04938 -0.81015,-15.10975 -12.98594,-18.6408 -23.562273,-6.83321 -26.451773,-7.93155 -29.592403,-11.24855 -4.22515,-4.46242 -5.36031,-6.93852 -5.36031,-11.6923 0,-6.33959 3.49935,-14.26592 8.56797,-19.40716 11.72574,-11.8937398 35.018903,-16.1861896 49.160983,-9.05935 6.61465,3.33343 9.19159,6.46025 10.29441,12.49109 1.11494,6.09715 0.71995,7.524827 0.71995,7.524827 l -12.34242,-0.108207 c 0,0 -1.26693,-7.00116 -2.24407,-8.17046 -3.3397,-3.99648 -7.54202,-5.3746 -16.35717,-5.36422 -14.416013,0.017 -23.549413,6.33049 -24.573323,16.98649 -0.42487,4.42175 -0.17616,5.20775 2.49213,7.87605 2.89412,2.89412 5.68224,3.94441 26.781523,10.08862 9.99154,2.90959 14.42548,5.74578 17.25785,11.03907 1.96064,3.66416 2.30307,5.42707 1.84357,9.49116 -0.78113,6.90885 -5.82553,16.67564 -10.89342,21.09148 -11.07048,9.646112 -30.603033,13.766812 -45.207983,9.537322 z"
       inkscape:connector-curvature="0"
       sodipodi:nodetypes="cccccssccssccccccsssccsccssssscccccccccccccccccccccccccccsssccsccsssscccssscsssccssssscsccscscccccccccccccccccccsccscccsscsccccsccccsscscssccccssssssscsccccssscccssssscsscccsssssssssccsssssssss" />
    <path
       id="certified"
       style="fill:#005193;display:inline"
       d="m 425.11595,456.00894 c 3.4736,-2.27601 8.3825,-19.55735 8.3852,-28.25742 10e-4,-4.37345 -3.5387,-7.88486 -7.9493,-7.88486 -2.0927,0 -5.41885,0.13334 -5.41885,0.13334 l -7.58735,39 c 0,0 6.4774,1.00115 12.5703,-2.99106 z M 401.94785,466 l 9.6859,-53 c 0,0 1.0092,-0.42186 12.6401,0 13.5979,0.49315 16.2568,1.68138 18.0937,7.81243 1.7051,5.69109 -0.5721,20.80646 -4.6033,30.55427 -4.5291,10.95222 -9.1338,13.97657 -24.4946,14.63334 -9.0155,0.38546 -11.3218,0 -11.3218,0 z m -47.19485,0 11.332,-53 26.489,0 -1.284,7 -18.121,0 -2.724,14 16.05695,0 -1.63695,8 -15.83,0 -3.899,17 18.061,0 -1.195,7 z m -29.753,0 11,-53 9.5,0 -11,53 z m -42.398,0 11.05375,-53 25.573,0 -1.3802,7 -16.31595,0 -3.1646,15 15.567,0 -1.02929,7 -15.85829,0 -5.11517,24 z m -29.588,0 11.276,-53 9.536,0 -11.277,53 z m -37.803,0 8.789,-46 -11.5,0 1.52347,-7 33.69553,0 -1.61866,7 -13.10034,0 -9,46 z m -33.9258,-30.694 c 7.33465,-5.13744 6.45672,-15.43934 -1.31575,-15.43934 -2.09458,0 -4.7534,0.13334 -4.7534,0.13334 l -2.89167,15.85616 c 0,0 6.46965,1.19467 8.96082,-0.5502 z M 156.487,466 167.81338,413 c 0,0 3.76536,-0.27152 12.31966,4e-5 10.23226,0.32481 11.4442,0.58873 13.79343,2.79572 4.98089,4.67931 2.05228,15.40357 -4.23035,20.57095 -1.97316,1.6229 -5.02903,3.22174 -5.08548,3.78481 -0.0497,0.49618 2.56325,1.846 4.03047,3.10228 1.98187,1.69693 2.09121,2.455 1.48729,10.31174 C 189.31358,464.16597 188.97557,466 188.97557,466 l -9.77857,0 c 0,0 0.73641,-5.47684 1.41977,-9.54406 1.1092,-6.60123 1.05992,-7.6737 -0.45916,-9.9921 -1.27236,-1.94187 -2.54811,-2.59717 -5.05623,-2.59717 -4.30806,0 -4.67714,0.12033 -4.67714,0.12033 l -5.03824,22.01304 z m -45.84,4e-5 11.147,-53 26.78,-4e-5 -1.284,7 -18.121,0 -2.724,14 15.83173,0 -1.41173,8 -15.83,0 -3.899,17.00009 18.061,0 L 138.002,466 z m -41.644996,-0.53589 c -5.95269,-2.62758 -6.85044,-4.63223 -6.19487,-13.83299 0.61852,-8.68063 3.27378,-20.52365 6.10979,-27.25085 3.48592,-8.26885 9.02321,-11.85297 18.34546,-11.8743 4.47949,-0.0102 9.31919,3.31667 10.92191,7.29941 1.66691,4.14224 0.93232,8.19462 0.93232,8.19462 l -8.23559,0 c 0,0 0.22077,-0.16692 -0.37902,-4.21563 -0.64484,-4.35279 -4.56656,-6.08704 -8.27303,-3.65847 -4.55242,2.98286 -7.86186,14.8595 -9.42557,28.29077 -1.0933,9.39075 0.14145,11.86123 5.57587,11.33249 1.30629,-0.12709 4.53358,-1.73944 6.14065,-4.12531 1.60707,-2.38587 2.09208,-5.62385 2.09208,-5.62385 l 7.53163,-0.045 c 0,0 -0.87075,6.22766 -2.47005,8.44875 -1.82234,2.53085 -2.78119,4.38262 -7.48328,6.51741 -5.0373,1.51632 -10.9376,2.31284 -15.1883,0.54295 z"
       inkscape:connector-curvature="0"
       sodipodi:nodetypes="cscccccccsscccccccccccccccccccccccccccccccccccccccccccccccccscccssssssccscsccccccccccccccccccsssccsssssccsccc" />
    <g
       transform="scale(0.91458603,1.0933909)"
       style="font-size:42.65239716px;font-style:normal;font-weight:normal;line-height:125%;letter-spacing:0px;word-spacing:0px;fill:#000000;fill-opacity:1;stroke:none;font-family:Sans"
       id="registered">
      <g
         id="g3797">
        <path
           id="path3786"
           d="m 1539.3715,837.5874 c 0,15.91387 -12.9008,28.8146 -28.8146,28.8146 -15.9139,0 -28.8146,-12.90073 -28.8146,-28.8146 0,-15.91386 12.9007,-28.8146 28.8146,-28.8146 15.9138,0 28.8146,12.90074 28.8146,28.8146 z"
           style="display:inline;fill:none;stroke:#005196;stroke-width:2.28778124000000020;stroke-miterlimit:4;stroke-opacity:1"
           transform="matrix(0.95585262,0,0,0.79953972,326.0055,63.302329)" />
        <path
           id="path3793"
           style="fill:#005193;fill-opacity:1"
           d="m 1759.0138,748.4743 0,-30.53145 13.5371,0 c 2.7213,3e-5 4.7901,0.27425 6.2063,0.82264 1.4162,0.54846 2.5477,1.51689 3.3947,2.90528 0.8469,1.38845 1.2704,2.92266 1.2704,4.60263 0,2.16596 -0.7012,3.99174 -2.1035,5.47733 -1.4023,1.48563 -3.5682,2.42976 -6.4978,2.83239 1.0691,0.51373 1.8813,1.0205 2.4367,1.52032 1.1801,1.08299 2.2978,2.4367 3.3531,4.06114 l 5.3107,8.30972 -5.0817,0 -4.0403,-6.35204 c -1.1802,-1.83271 -2.152,-3.23502 -2.9157,-4.20692 -0.7636,-0.97189 -1.4474,-1.65222 -2.0514,-2.04099 -0.6039,-0.38874 -1.2183,-0.65949 -1.8431,-0.81223 -0.4582,-0.0972 -1.2079,-0.14577 -2.2492,-0.14578 l -4.686,0 0,13.55796 z m 4.0403,-17.05679 8.6846,0 c 1.8466,2e-5 3.2906,-0.19089 4.3319,-0.57272 1.0413,-0.3818 1.8327,-0.99271 2.3742,-1.83272 0.5415,-0.83998 0.8122,-1.75287 0.8122,-2.73867 0,-1.44394 -0.5241,-2.63104 -1.5724,-3.56131 -1.0482,-0.93022 -2.7039,-1.39534 -4.967,-1.39537 l -9.6635,0 z" />
      </g>
    </g>
  </g>
</svg>
